<svg xmlns="http://www.w3.org/2000/svg" viewBox="0 0 512 512" preserveAspectRatio="xMidYMid meet" aria-hidden="true">
  <g transform="translate(0,512) scale(0.1,-0.1)" fill="currentColor" stroke="none">
    <path d="M933 4357 c-418 -419 -773 -780 -790 -802 -161 -211 -186 -482 -67
-725 l46 -95 1367 -1368 1366 -1368 855 3 c797 3 859 5 910 22 191 63 342 191
423 356 67 137 81 219 74 439 -4 147 -9 192 -31 275 -52 194 -148 358 -293
496 -142 137 -285 218 -471 267 -85 23 -122 26 -310 31 -207 4 -212 5 -217 26
-3 11 -79 387 -169 835 l-164 814 -213 213 -213 213 -71 -68 c-38 -37 -95 -81
-125 -97 -48 -24 -67 -28 -140 -28 -122 -1 -164 21 -283 142 -178 184 -256
370 -261 619 -3 132 27 89 -262 368 l-201 194 -760 -762z m845 260 l73 -73 10
-97 c31 -301 165 -563 398 -779 201 -185 482 -229 714 -113 l51 26 82 -83 81
-83 46 -235 c26 -129 47 -241 47 -247 0 -10 -55 -13 -240 -13 l-241 0 3 -147
3 -148 271 -3 271 -2 30 -150 30 -150 -241 -2 -241 -3 -3 -147 -3 -148 271 0
270 0 9 -22 c4 -13 25 -109 46 -215 l37 -192 327 -3 c308 -4 330 -5 396 -27
209 -69 375 -210 465 -396 38 -78 70 -181 70 -224 l0 -21 -787 0 -788 0 -1327
1327 -1328 1328 557 557 c307 307 560 558 563 558 3 0 38 -33 78 -73z m-38
-2632 l1365 -1365 852 0 c972 0 875 12 824 -97 -39 -81 -105 -147 -189 -186
l-67 -32 -775 -3 -775 -2 -1306 1307 c-1226 1228 -1307 1312 -1333 1370 -32
75 -43 173 -27 240 13 53 49 133 59 133 4 0 621 -614 1372 -1365z"/>
    <path d="M0 1350 l0 -150 475 0 475 0 0 150 0 150 -475 0 -475 0 0 -150z"/>
    <path d="M600 750 l0 -150 475 0 475 0 0 150 0 150 -475 0 -475 0 0 -150z"/>
    <path d="M1200 150 l0 -150 475 0 475 0 0 150 0 150 -475 0 -475 0 0 -150z"/>
  </g>
</svg>