<svg xmlns="http://www.w3.org/2000/svg" viewBox="0 0 512 512" preserveAspectRatio="xMidYMid meet" aria-hidden="true">
  <g transform="translate(0,512) scale(0.1,-0.1)" fill="currentColor" stroke="none">
    <path d="M2463 4406 c-104 -34 -176 -98 -222 -196 -21 -45 -26 -70 -26 -140 0
-107 30 -177 105 -250 l51 -50 -332 -474 -332 -475 -506 254 -506 253 -1 65
c-2 119 -78 235 -191 293 -52 26 -68 29 -153 29 -110 0 -160 -18 -230 -81
-189 -171 -146 -466 83 -575 34 -16 71 -29 82 -29 19 0 35 -67 218 -888 l197
-887 0 -244 0 -243 34 -34 34 -34 1792 0 1792 0 34 34 34 34 0 243 0 244 197
887 c183 821 199 888 218 888 35 0 142 57 183 98 21 21 52 66 68 98 25 51 29
71 29 144 0 76 -4 92 -33 152 -38 77 -92 130 -171 167 -47 22 -70 26 -141 26
-71 0 -94 -4 -141 -26 -123 -58 -201 -171 -203 -295 l-1 -66 -506 -253 -506
-254 -332 475 -332 474 51 50 c75 73 105 143 105 250 0 71 -5 94 -27 141 -57
124 -168 199 -301 205 -43 3 -89 -2 -114 -10z m167 -245 c14 -10 30 -34 37
-54 32 -95 -58 -182 -150 -143 -45 18 -70 56 -70 107 0 95 103 145 183 90z
m295 -1047 c198 -284 371 -525 384 -535 53 -42 65 -37 663 262 l561 281 26
-26 25 -26 -183 -827 c-101 -456 -186 -834 -189 -840 -6 -19 -3298 -19 -3304
0 -3 6 -88 384 -189 840 l-183 827 25 26 26 26 561 -281 c598 -299 610 -304
663 -262 13 10 186 251 384 535 198 283 362 515 365 515 3 0 167 -232 365
-515z m-2505 348 c53 -40 57 -123 8 -172 -24 -25 -38 -30 -77 -30 -88 0 -140
75 -108 153 31 72 114 95 177 49z m4408 8 c46 -28 68 -82 53 -131 -16 -53 -53
-79 -112 -79 -40 0 -52 5 -78 31 -57 57 -40 153 32 184 44 19 67 18 105 -5z
m-638 -2425 l0 -115 -1630 0 -1630 0 0 115 0 115 1630 0 1630 0 0 -115z"/>
  </g>
</svg>