<svg xmlns="http://www.w3.org/2000/svg"
     viewBox="0 0 512 512"
     preserveAspectRatio="xMidYMid meet"
     aria-hidden="true">
  <g transform="translate(0,512) scale(0.1,-0.1)"
     fill="currentColor"
     stroke="none">
    <path d="M2444 4345 c-98 -21 -188 -71 -263 -146 -118 -119 -166 -242 -159
-409 8 -174 85 -315 228 -419 l40 -29 -370 -461 c-204 -254 -373 -461 -376
-461 -3 0 -609 488 -656 529 -4 4 19 34 51 69 98 105 144 221 145 367 0 212
-117 397 -311 491 -306 148 -679 -34 -758 -368 -63 -269 103 -559 366 -639 38
-12 69 -24 69 -29 0 -4 57 -302 127 -661 l126 -654 6 -330 c4 -238 10 -336 19
-352 7 -12 29 -35 49 -50 l36 -28 1747 0 1747 0 36 28 c20 15 42 38 49 50 9
16 15 114 19 352 l6 330 126 654 c70 359 127 657 127 661 0 5 31 17 69 29 263
80 429 370 366 639 -65 274 -334 457 -611 414 -199 -31 -377 -185 -436 -376
-25 -82 -29 -222 -9 -296 23 -80 73 -169 130 -230 l56 -59 -347 -266 c-191
-146 -353 -268 -360 -270 -8 -3 -143 168 -353 447 -187 249 -341 458 -343 463
-1 6 10 18 25 27 44 26 119 102 157 160 55 82 79 159 84 268 7 167 -41 290
-159 409 -132 132 -313 186 -495 146z m234 -350 c138 -92 126 -296 -21 -370
-127 -63 -270 4 -307 143 -26 100 21 190 130 249 16 9 48 13 90 11 51 -3 74
-10 108 -33z m-2043 -414 c76 -34 125 -113 125 -202 0 -55 -48 -139 -98 -172
-50 -34 -131 -46 -186 -27 -146 48 -194 241 -88 354 59 63 167 84 247 47z
m4023 3 c145 -60 178 -257 59 -361 -105 -92 -265 -60 -329 66 -43 84 -34 171
25 238 60 68 162 92 245 57z m-1692 -976 c236 -312 421 -549 439 -560 42 -25
88 -32 130 -18 19 6 196 135 393 285 196 150 358 272 359 271 2 -2 -36 -208
-84 -459 l-87 -457 -1556 0 -1556 0 -86 448 c-47 246 -84 448 -83 450 1 1 149
-116 328 -262 179 -145 340 -269 358 -275 44 -15 67 -14 115 8 35 16 108 102
480 565 241 300 439 546 440 546 1 0 186 -244 410 -542z m1124 -1393 l0 -125
-1530 0 -1530 0 0 125 0 125 1530 0 1530 0 0 -125z"/>
  </g>
</svg>