<?xml version="1.0" standalone="no"?>
<!DOCTYPE svg PUBLIC "-//W3C//DTD SVG 20010904//EN"
 "http://www.w3.org/TR/2001/REC-SVG-20010904/DTD/svg10.dtd">
<svg version="1.0" xmlns="http://www.w3.org/2000/svg"
 width="512.000000pt" height="512.000000pt" viewBox="0 0 512.000000 512.000000"
 preserveAspectRatio="xMidYMid meet">

<g transform="translate(0.000000,512.000000) scale(0.100000,-0.100000)"
fill="#000000" stroke="none">
<path d="M1600 4461 l-955 -347 0 -885 c0 -804 2 -894 18 -999 74 -471 263
-840 606 -1180 204 -203 415 -355 696 -501 211 -110 523 -229 598 -229 38 0
268 78 397 135 332 146 627 338 860 562 386 370 604 819 650 1343 7 82 10 403
8 940 l-3 815 -955 347 c-525 191 -957 347 -960 347 -3 0 -435 -156 -960 -348z
m1732 -272 c425 -155 785 -286 801 -291 l27 -10 0 -713 c0 -423 -4 -755 -10
-816 -65 -642 -449 -1169 -1100 -1512 -164 -87 -439 -197 -491 -197 -36 0
-263 90 -414 165 -159 78 -341 192 -465 291 -419 335 -657 757 -710 1255 -5
53 -10 411 -10 810 l0 716 348 127 c191 69 550 200 797 290 248 91 451 165
452 165 2 1 350 -126 775 -280z"/>
<path d="M2823 2728 l-583 -583 -265 265 -265 265 -112 -113 -113 -112 378
-378 377 -377 697 697 698 698 -110 110 c-60 60 -112 110 -115 110 -3 0 -267
-262 -587 -582z"/>
</g>
</svg>
