<svg xmlns="http://www.w3.org/2000/svg"
 viewBox="0 0 512 512"
 preserveAspectRatio="xMidYMid meet"
 aria-hidden="true">
  <g transform="translate(0,512) scale(0.1,-0.1)"
     fill="currentColor"
     stroke="none">
    <path d="M1300 4549 c-674 -314 -1236 -581 -1249 -593 -53 -48 -51 22 -51
-1476 0 -1498 -2 -1428 51 -1477 31 -28 2470 -1003 2509 -1003 39 0 2478 975
2509 1003 53 49 51 -21 51 1477 0 1498 2 1428 -51 1476 -13 12 -571 277 -1239
589 -888 415 -1227 569 -1260 572 -42 4 -120 -31 -1270 -568z m2264 -234 c542
-253 982 -463 978 -466 -11 -12 -735 -299 -752 -299 -21 0 -2030 853 -2024
860 15 15 781 368 796 367 9 -1 460 -209 1002 -462z m-1200 -514 c533 -226
975 -415 983 -420 11 -5 -111 -59 -386 -169 l-401 -160 -987 395 c-544 217
-991 398 -995 401 -12 11 764 371 792 368 14 -2 461 -188 994 -415z m-989
-619 l1020 -408 3 -1188 c2 -1128 1 -1187 -15 -1182 -10 3 -477 189 -1038 414
l-1020 408 -3 1188 c-2 1128 -1 1187 15 1182 10 -3 477 -189 1038 -414z m3423
-769 l-3 -1187 -1020 -408 c-561 -225 -1028 -411 -1038 -414 -16 -5 -17 54
-15 1182 l3 1188 1030 413 c567 226 1033 412 1038 413 4 0 6 -534 5 -1187z"/>
  </g>
</svg>